<?xml version="1.0" encoding="UTF-8"?>
<svg width="600" height="400" viewBox="0 0 600 400" fill="none" xmlns="http://www.w3.org/2000/svg">
  <!-- Background Elements -->
  <circle cx="300" cy="200" r="180" fill="#E8F5FE" opacity="0.5"/>
  <circle cx="300" cy="200" r="150" fill="#D1E9FC" opacity="0.3"/>
  
  <!-- Device Frame -->
  <rect x="150" y="80" width="300" height="240" rx="8" fill="#FFFFFF" stroke="#388FEC" stroke-width="3"/>
  <rect x="170" y="100" width="260" height="180" rx="4" fill="#F8F9FA"/>
  
  <!-- Accessibility Elements -->
  <circle cx="250" cy="150" r="30" fill="#388FEC" opacity="0.2"/>
  <path d="M250 130 L250 170 M230 150 L270 150" stroke="#388FEC" stroke-width="4" stroke-linecap="round"/>
  
  <rect x="300" y="140" width="100" height="10" rx="2" fill="#388FEC" opacity="0.3"/>
  <rect x="300" y="160" width="80" height="10" rx="2" fill="#388FEC" opacity="0.2"/>
  
  <!-- Check Marks -->
  <circle cx="220" cy="220" r="15" fill="#4CAF50" opacity="0.2"/>
  <path d="M213 220 L218 225 L227 215" stroke="#4CAF50" stroke-width="2" stroke-linecap="round"/>
  
  <circle cx="300" cy="220" r="15" fill="#4CAF50" opacity="0.2"/>
  <path d="M293 220 L298 225 L307 215" stroke="#4CAF50" stroke-width="2" stroke-linecap="round"/>
  
  <circle cx="380" cy="220" r="15" fill="#4CAF50" opacity="0.2"/>
  <path d="M373 220 L378 225 L387 215" stroke="#4CAF50" stroke-width="2" stroke-linecap="round"/>
  
  <!-- Decorative Elements -->
  <circle cx="480" cy="100" r="8" fill="#FF006E" opacity="0.3"/>
  <circle cx="120" cy="300" r="12" fill="#FF006E" opacity="0.2"/>
  <circle cx="500" cy="280" r="10" fill="#388FEC" opacity="0.2"/>
  <circle cx="150" cy="50" r="6" fill="#388FEC" opacity="0.3"/>
</svg> 